<?xml version="1.0" encoding="UTF-8"?>
<svg width="68px" height="68px" viewBox="0 0 68 68" version="1.1" xmlns="http://www.w3.org/2000/svg" xmlns:xlink="http://www.w3.org/1999/xlink">
    <!-- Generator: Sketch 46.2 (44496) - http://www.bohemiancoding.com/sketch -->
    <title>009-stopwatch</title>
    <desc>Created with Sketch.</desc>
    <defs>
        <linearGradient x1="50%" y1="100%" x2="50%" y2="0%" id="linearGradient-1">
            <stop stop-color="#29323C" offset="0%"></stop>
            <stop stop-color="#485563" offset="100%"></stop>
        </linearGradient>
    </defs>
    <g id="Symbols" stroke="none" stroke-width="1" fill="none" fill-rule="evenodd">
        <g id="009-stopwatch">
            <g>
                <rect id="Rectangle" fill="url(#linearGradient-1)" x="0" y="0" width="68" height="68"></rect>
                <path d="M55.6850333,21.5636875 C56.1049889,21.1486152 56.1049889,20.476252 55.6850333,20.0612793 L51.384998,15.8112461 C50.9650424,15.3961738 50.2847687,15.3961738 49.8649138,15.8112461 L46.5066797,19.1304297 C44.2125952,17.5985371 41.604577,16.4930723 38.7999345,15.9282871 L38.7999345,13.375 L39.8749685,13.375 C40.469175,13.375 40.9500025,12.8997637 40.9500025,12.3124668 L40.9500025,8.0625332 C40.9500025,7.47523633 40.469175,7 39.8749685,7 L29.1250315,7 C28.530825,7 28.0499975,7.47523633 28.0499975,8.0625332 L28.0499975,12.3125664 C28.0499975,12.8997637 28.530825,13.375 29.1250315,13.375 L30.2000655,13.375 L30.2000655,15.9282871 C27.395423,16.4931719 24.7874048,17.5985371 22.4933203,19.1304297 L19.1350862,15.8112461 C18.7151306,15.3961738 18.0348568,15.3961738 17.615002,15.8112461 L13.3149667,20.0612793 C12.8950111,20.4763516 12.8950111,21.1487148 13.3149667,21.5636875 L16.6732008,24.8828711 C14.3551304,28.273873 13.0000252,32.3583555 13.0000252,36.7500332 C13.0000252,48.467582 22.644593,58 34.5,58 C46.355407,58 55.9999748,48.467582 55.9999748,36.7500332 C55.9999748,32.3583555 54.6449704,28.273873 52.3267992,24.8828711 L55.6850333,21.5636875 Z M50.6250063,18.0649082 L53.4048566,20.8124336 L51.0194643,23.1700879 C50.1790491,22.1730977 49.2483339,21.2531055 48.239614,20.4225625 L50.6250063,18.0649082 Z M30.1999647,9.1249668 L38.7999345,9.1249668 L38.7999345,11.2499336 L37.7250013,11.2499336 C37.1307948,11.2499336 36.6499672,11.7251699 36.6499672,12.3124668 L36.6499672,15.6076445 C35.9424826,15.5378184 35.2256253,15.4999668 34.5,15.4999668 C33.7743747,15.4999668 33.0574166,15.5378184 32.3500328,15.6076445 L32.3500328,12.3124668 C32.3500328,11.7251699 31.8692052,11.2499336 31.2749987,11.2499336 L30.1999647,11.2499336 L30.1999647,9.1249668 Z M15.5951434,20.8125332 L18.3749937,18.0649082 L20.760386,20.4225625 C19.7516661,21.2532051 18.8208501,22.1730977 17.9805357,23.1700879 L15.5951434,20.8125332 Z M53.8500076,36.7500332 C53.8500076,47.2951797 45.1692112,55.8750332 34.5,55.8750332 C23.8307888,55.8750332 15.1499924,47.2951797 15.1499924,36.7500332 C15.1499924,26.2048867 23.8307888,17.6250332 34.5,17.6250332 C45.1692112,17.6250332 53.8500076,26.2048867 53.8500076,36.7500332 Z" id="Shape" stroke="#FFFFFF" fill="#FFFFFF" fill-rule="nonzero"></path>
            </g>
        </g>
    </g>
</svg>