<?xml version="1.0" encoding="UTF-8"?>
<svg width="52px" height="52px" viewBox="0 0 52 52" version="1.1" xmlns="http://www.w3.org/2000/svg" xmlns:xlink="http://www.w3.org/1999/xlink">
    <!-- Generator: Sketch 46.2 (44496) - http://www.bohemiancoding.com/sketch -->
    <title>calendar_oval</title>
    <desc>Created with Sketch.</desc>
    <defs>
        <linearGradient x1="0%" y1="0%" x2="100%" y2="100%" id="linearGradient-1">
            <stop stop-color="#D0D0D0" offset="0%"></stop>
            <stop stop-color="#FEFEFE" offset="100%"></stop>
        </linearGradient>
    </defs>
    <g id="Symbols" stroke="none" stroke-width="1" fill="none" fill-rule="evenodd">
        <g id="calendar_oval">
            <g id="calendar">
                <g id="event" fill="url(#linearGradient-1)">
                    <circle id="Oval-3" cx="26" cy="26" r="26"></circle>
                </g>
                <g id="008-calendar" transform="translate(12.000000, 11.000000)" fill-rule="nonzero" fill="#000000">
                    <path d="M26.3635633,2.63638611 L22.4090319,2.63638611 L22.4090319,0.659111974 C22.4090319,0.294799215 22.114234,0 21.7499228,0 C21.3856116,0 21.0908136,0.294799215 21.0908136,0.659111974 L21.0908136,2.63638611 L9.22721936,2.63638611 L9.22721936,0.659111974 C9.22721936,0.294799215 8.9324214,0 8.56817199,0 C8.20392257,0 7.90906282,0.294799215 7.90906282,0.659111974 L7.90906282,2.63638611 L2.63637487,2.63638611 C1.18302279,2.63638611 0,3.81873425 0,5.27271042 L0,26.3636139 C0,27.8175901 1.18302279,29 2.63637487,29 L21.748687,29 L21.748687,28.9997528 L21.7499846,29 C21.9212034,29 22.0898271,28.9330816 22.2160014,28.8069068 L28.8069076,22.2159725 C28.9325876,22.0897976 28.9742338,21.9214204 28.9744191,21.7499537 L29,21.7499537 L29,5.27271042 C28.9998764,3.81873425 27.8169154,2.63638611 26.3635633,2.63638611 Z M22.4090319,26.749862 L22.4090319,23.7272896 C22.4090319,23.0006413 22.9999254,22.4091274 23.7271885,22.4091274 L26.749748,22.4091274 L22.4090319,26.749862 Z M27.6817199,21.0909035 L23.7271885,21.0909035 C22.2738364,21.0909035 21.0908136,22.2732516 21.0908136,23.7272896 L21.0908136,27.6818378 L2.63637487,27.6818378 C1.90905004,27.6818378 1.31821833,27.0903239 1.31821833,26.3636757 L1.31821833,10.5454826 L27.6817199,10.5454826 L27.6817199,21.0909035 Z M27.6817199,9.22725868 L1.31815654,9.22725868 L1.31815654,5.27271042 C1.31815654,4.54606218 1.90905004,3.95454826 2.63637487,3.95454826 L7.90906282,3.95454826 L7.90906282,5.27271042 C7.18173799,5.27271042 6.59090628,5.86422434 6.59090628,6.59087258 C6.59090628,7.31752082 7.18173799,7.90909653 7.90906282,7.90909653 C8.63638765,7.90909653 9.22721936,7.31758261 9.22721936,6.59093437 L9.22721936,3.95454826 L21.0908136,3.95454826 L21.0908136,5.27271042 C20.3634888,5.27271042 19.7726571,5.86422434 19.7726571,6.59087258 C19.7726571,7.31752082 20.3635506,7.90909653 21.0908136,7.90909653 C21.8180766,7.90909653 22.4089701,7.31758261 22.4089701,6.59093437 L22.4089701,3.95454826 L26.3635016,3.95454826 C27.0908882,3.95454826 27.6817199,4.54606218 27.6817199,5.27271042 L27.6817199,9.22725868 Z" id="Shape"></path>
                </g>
            </g>
        </g>
    </g>
</svg>