<?xml version="1.0" encoding="UTF-8"?>
<svg width="52px" height="52px" viewBox="0 0 52 52" version="1.1" xmlns="http://www.w3.org/2000/svg" xmlns:xlink="http://www.w3.org/1999/xlink">
    <!-- Generator: Sketch 46.2 (44496) - http://www.bohemiancoding.com/sketch -->
    <title>dice_oval</title>
    <desc>Created with Sketch.</desc>
    <defs>
        <linearGradient x1="0%" y1="0%" x2="100%" y2="100%" id="linearGradient-1">
            <stop stop-color="#D0D0D0" offset="0%"></stop>
            <stop stop-color="#FEFEFE" offset="100%"></stop>
        </linearGradient>
    </defs>
    <g id="Symbols" stroke="none" stroke-width="1" fill="none" fill-rule="evenodd">
        <g id="dice_oval">
            <g id="Group-2">
                <g id="intrview-copy" fill="url(#linearGradient-1)">
                    <circle id="Oval-3-Copy" cx="26" cy="26" r="26"></circle>
                </g>
                <g id="002-dice-cube-outline-copy" transform="translate(9.000000, 9.000000)" stroke="#000000" fill-rule="nonzero" stroke-width="0.8" fill="#000000" stroke-linecap="round">
                    <path d="M33.7900721,6.0248421 L17.1231508,0.0188008531 C17.0540408,-0.00626695105 16.9760973,-0.00626695105 16.9049089,0.0188008531 L0.208888617,6.01000606 C0.0831397481,6.05502579 0,6.17371417 0,6.30468065 L0.0467661083,27.0158028 C0.0467661083,27.1436998 0.125748869,27.258807 0.246821127,27.3053615 L16.3795696,33.6485392 L16.3795696,33.6853735 C16.3795696,33.7892258 16.4325712,33.8864275 16.519868,33.9452601 C16.6071647,34.0020464 16.7168052,34.0143245 16.8160533,33.9769785 L17.0161083,33.898194 L17.2161633,33.9769785 C17.2535762,33.991303 17.2941069,34 17.3341179,34 C17.3969923,34 17.4588275,33.9810712 17.5128683,33.9462833 C17.6001651,33.8874507 17.6531666,33.790249 17.6531666,33.6863967 L17.6531666,33.6495623 L33.7859151,27.3063847 C33.9064678,27.258807 33.9859702,27.1447229 33.9859702,27.0158028 L34,6.32053988 C33.9984411,6.18752704 33.915821,6.07088501 33.7900721,6.0248421 Z M16.37905,32.2984588 L1.31880425,26.3783643 L1.31880425,7.68034036 L16.3785304,13.6004348 L16.37905,32.2984588 L16.37905,32.2984588 Z M17.0150691,12.5025673 L2.2182724,6.68427883 L17.0171476,1.31362968 L31.9485267,6.63107369 L17.0150691,12.5025673 Z M32.7108143,26.3783643 L17.6516078,32.2984588 L17.6516078,13.6004348 L32.7108143,7.68034036 L32.7108143,26.3783643 Z M7.25602152,19.4509534 C7.25602152,18.5853468 7.95751314,18.1576593 8.82320577,18.4958189 C9.68837877,18.8350016 10.39039,19.8121344 10.39039,20.6797874 C10.3898704,21.545394 9.68837877,21.973593 8.82268615,21.6349219 C7.95699352,21.2952276 7.2555019,20.3170716 7.25602152,19.4509534 Z M2.84961487,12.9814136 C2.84961487,12.1152953 3.55162612,11.6876079 4.41731874,12.0267907 C5.28301137,12.3654618 5.984503,13.3425946 5.984503,14.209736 C5.984503,15.0768774 5.28249175,15.5035416 4.41679912,15.1648705 C3.55058687,14.8251761 2.84961487,13.8480434 2.84961487,12.9814136 Z M11.6629478,16.4341199 C11.6629478,15.5674901 12.364959,15.1398027 13.2306517,15.4789854 C14.0963443,15.8181681 14.7978359,16.7953009 14.7978359,17.6619307 C14.7978359,18.5290721 14.095305,18.956248 13.230132,18.6170652 C12.3644394,18.2778825 11.6629478,17.3007497 11.6629478,16.4341199 Z M2.848056,22.0508428 C2.84857562,21.1852362 3.55006725,20.7570372 4.41575987,21.0957083 C5.2814525,21.4354026 5.98294413,22.4120238 5.98294413,23.2796768 C5.98294413,24.1463066 5.28093288,24.573994 4.41524025,24.2348113 C3.549028,23.8956286 2.848056,22.9174726 2.848056,22.0508428 Z M11.6619085,25.5040607 C11.6624282,24.6369193 12.3639198,24.2102551 13.2296124,24.5489262 C14.095305,24.8875974 14.7967967,25.8647302 14.7967967,26.7328947 C14.7967967,27.5985013 14.0947854,28.0261888 13.2290928,27.6875176 C12.3628805,27.3483349 11.6619085,26.3701789 11.6619085,25.5040607 Z M14.183641,6.50266515 C13.7856095,7.13089502 12.5161695,7.57034897 11.3454579,7.48337904 C10.1747463,7.39692069 9.54756083,6.81780326 9.94507275,6.19008498 C10.3425847,5.5623667 11.6115051,5.12342433 12.7827363,5.20988267 C13.9524086,5.29582943 14.5801137,5.87494687 14.183641,6.50266515 Z M22.5589314,7.12168643 C22.1619391,7.75042789 20.8919795,8.18885867 19.7217875,8.10240033 C18.5500367,8.01594198 17.9238905,7.43631296 18.3208827,6.80910626 C18.717875,6.18036481 19.9883543,5.74193403 21.1590659,5.82788078 C22.3287382,5.91536231 22.9564433,6.49447974 22.5589314,7.12168643 Z M24.1759995,21.6543622 C23.6350715,21.000553 23.7790072,19.7589293 24.4976464,18.8810445 C25.2152464,18.0031598 26.2352671,17.8225693 26.7741166,18.475867 C27.3150446,19.1286531 27.1711089,20.3707883 26.453509,21.2486731 C25.735909,22.1265578 24.7158883,22.3071483 24.1759995,21.6543622 Z" id="Shape"></path>
                </g>
            </g>
        </g>
    </g>
</svg>