<?xml version="1.0" encoding="UTF-8"?>
<svg width="52px" height="52px" viewBox="0 0 52 52" version="1.1" xmlns="http://www.w3.org/2000/svg" xmlns:xlink="http://www.w3.org/1999/xlink">
    <!-- Generator: Sketch 46.2 (44496) - http://www.bohemiancoding.com/sketch -->
    <title>megaphone_oval</title>
    <desc>Created with Sketch.</desc>
    <defs>
        <linearGradient x1="0%" y1="0%" x2="100%" y2="100%" id="linearGradient-1">
            <stop stop-color="#D0D0D0" offset="0%"></stop>
            <stop stop-color="#FEFEFE" offset="100%"></stop>
        </linearGradient>
    </defs>
    <g id="Symbols" stroke="none" stroke-width="1" fill="none" fill-rule="evenodd">
        <g id="megaphone_oval">
            <g id="Group-4">
                <g id="news-copy" fill="url(#linearGradient-1)">
                    <circle id="Oval-3-Copy-2" cx="26" cy="26" r="26"></circle>
                </g>
                <g id="006-technology-copy" transform="translate(9.000000, 10.000000)" fill-rule="nonzero" fill="#000000">
                    <path d="M33.5335242,9.9634023 C32.8585705,9.31368918 32.0240573,8.90650908 31.1344704,8.78162989 L31.1344704,0.948206076 C31.1344704,0.576071792 30.9155479,0.238243727 30.5747541,0.0846337953 C30.2339602,-0.0691468143 29.8344896,-0.0100923294 29.5530588,0.235171529 C23.7090074,5.33115257 13.0273876,6.55678915 11.5947266,6.70021531 C11.5739095,6.698793 11.5533212,6.69702933 11.5320466,6.69702933 L6.35545714,6.69617594 L6.35528557,6.69617594 C6.34053061,6.69617594 6.32583283,6.6965173 6.31119225,6.69714312 C6.3025566,6.69708622 6.29380656,6.69708622 6.28511372,6.69708622 L6.25714792,6.6972569 C2.74804064,6.75625449 -0.0586046536,9.86122325 0.00092990002,13.6185222 C0.0291244581,15.4051764 0.696414728,17.0829951 1.8798427,18.3429948 C3.08277238,19.6235327 4.67853862,20.328716 6.37335754,20.328716 C6.40458315,20.328716 7.71108351,20.3279764 7.71108351,20.3279764 L10.877624,31.1579887 C10.885745,31.1858091 10.8950097,31.21289 10.9055898,31.2394588 C11.2386059,32.2262604 11.9295155,33.0368088 12.8563902,33.5261418 C13.4516213,33.8403594 14.102441,34.0000569 14.7592083,34 C15.1468978,34 15.5368748,33.9443022 15.9183878,33.8319962 C16.9462596,33.5294416 17.7992451,32.8496892 18.3203011,31.9179596 C18.8308342,31.0049477 18.9672318,29.949875 18.7062177,28.940544 C18.7011278,28.9165353 18.6951801,28.8925835 18.6882029,28.8688024 L16.4133081,21.0878905 C20.3955464,21.9138568 25.9068676,23.5649928 29.5529444,26.7443771 C29.7302327,26.8989542 29.9545882,26.9794572 30.1814028,26.9794572 C30.314655,26.9794572 30.4486506,26.9517505 30.5746397,26.8949148 C30.9154907,26.741248 31.134356,26.4034199 31.134356,26.0312856 L31.134356,18.1693586 C33.3436541,17.8640731 35.0379011,15.8290829 34.9993552,13.4011926 C34.9788241,12.0936876 34.4445572,10.8406288 33.5335242,9.9634023 Z M15.3776585,32.0135391 C14.2583403,32.3431746 13.0578126,31.7111551 12.7023781,30.6044809 C12.6994615,30.5951505 12.696316,30.5859908 12.6931134,30.576888 L9.69648367,20.3279764 L11.4921282,20.3279764 C11.6880603,20.3448166 12.7517901,20.4428425 14.3144435,20.6985746 L16.8437183,29.3496015 C16.8463491,29.3606387 16.8490942,29.3715621 16.8520681,29.3824854 C17.1586624,30.5037241 16.4973199,31.6839605 15.3776585,32.0135391 Z M7.0356723,8.59263278 L10.5786931,8.5932586 L10.5786931,18.4316903 L7.0356723,18.4316903 L7.0356723,8.59263278 Z M5.12942279,18.2341024 C3.30198078,17.6417939 1.94160765,15.7840809 1.90689346,13.5887674 C1.87092109,11.318185 3.24244623,9.37922942 5.12942279,8.78259707 L5.12942279,18.2341024 Z M29.2280493,24.0878355 C26.5239453,22.2040657 22.9684571,20.711603 18.6263236,19.6404298 C15.9433226,18.9785985 13.6714016,18.6599433 12.4849998,18.5232304 L12.4849998,8.51076438 C13.6765487,8.36750889 15.9446379,8.0383285 18.6201471,7.36870298 C22.9665126,6.28057574 26.5238309,4.77849817 29.2281065,2.89233889 L29.2281065,24.0878355 L29.2280493,24.0878355 Z M31.1344132,16.2408713 L31.1344132,10.7133032 C31.5273641,10.8175873 31.8960666,11.0260417 32.2076937,11.3259793 C32.7578021,11.8557629 33.0807527,12.6230729 33.0934489,13.4310043 C33.1150666,14.7924434 32.2710027,15.9472488 31.1344132,16.2408713 Z" id="Shape"></path>
                </g>
            </g>
        </g>
    </g>
</svg>