<?xml version="1.0" encoding="UTF-8"?>
<svg width="52px" height="52px" viewBox="0 0 52 52" version="1.1" xmlns="http://www.w3.org/2000/svg" xmlns:xlink="http://www.w3.org/1999/xlink">
    <!-- Generator: Sketch 46.2 (44496) - http://www.bohemiancoding.com/sketch -->
    <title>microphone_oval</title>
    <desc>Created with Sketch.</desc>
    <defs>
        <linearGradient x1="0%" y1="0%" x2="100%" y2="100%" id="linearGradient-1">
            <stop stop-color="#D0D0D0" offset="0%"></stop>
            <stop stop-color="#FEFEFE" offset="100%"></stop>
        </linearGradient>
    </defs>
    <g id="Symbols" stroke="none" stroke-width="1" fill="none" fill-rule="evenodd">
        <g id="microphone_oval">
            <g id="Group-3">
                <g id="intrview" fill="url(#linearGradient-1)">
                    <circle id="Oval-3-Copy" cx="26" cy="26" r="26"></circle>
                </g>
                <g id="004-technology-1-copy" transform="translate(11.000000, 11.000000)" stroke="#000000" stroke-width="0.5" fill="#000000" fill-rule="nonzero">
                    <path d="M21.5354406,13.7541631 C21.9752672,13.9183673 22.4494945,14.0142576 22.9672448,14.0142576 C24.7603252,14.0142576 26.7462302,12.8635742 29.2168776,10.3929195 C30.3667221,9.24307167 31,7.71418912 31,6.08802354 C31,4.46178832 30.3666524,2.93297541 29.2168776,1.7831276 C28.0669636,0.633279795 26.5380855,0 24.9119944,0 C23.2859032,0 21.7569555,0.633279795 20.6071111,1.7831276 C18.190293,4.20002246 17.0401004,6.14658834 16.9875942,7.90903372 C16.970742,8.47469589 17.0688604,8.98910516 17.2462952,9.46403019 L16.1827309,10.5986971 L12.8426668,7.2586232 C12.7446877,7.1606438 12.6118902,7.10563049 12.4733127,7.10563049 C12.3347353,7.10563049 12.2020074,7.1606438 12.1039586,7.2586232 L3.77566444,15.5869419 C3.67775497,15.6848517 3.62274182,15.8177193 3.62274182,15.9562275 C3.62274182,16.0947357 3.67775497,16.2276032 3.77566444,16.325513 L7.40869094,19.9585502 L0.60126654,27.2207249 C-0.219752463,28.0964811 -0.197120472,29.4995294 0.65175329,30.348336 C1.08552151,30.7821055 1.66385594,31.0000696 2.24274745,31 C2.79670896,31 3.35115792,30.8002808 3.7793552,30.3988229 L11.0414389,23.5913088 L14.6744654,27.224346 C14.7724445,27.3223254 14.9052421,27.3773387 15.0438195,27.3773387 C15.1823969,27.3773387 15.3151248,27.3223254 15.4131736,27.224346 L23.7414678,18.8960273 C23.9454343,18.6920602 23.9454343,18.3613536 23.7414678,18.1574562 L21.17117,15.5871508 C21.1711003,15.5870812 21.1711003,15.5870115 21.1710307,15.5869419 C21.170961,15.5868723 21.1708914,15.5868723 21.1708218,15.5868026 L20.4013341,14.8173127 L21.5354406,13.7541631 Z M18.001403,7.93895951 C18.0451291,6.47027393 19.1358979,4.68674488 21.3362153,2.48648443 C22.2947548,1.52793918 23.569187,1 24.9248348,1 C26.2804826,1 27.5549148,1.52793918 28.5134544,2.48648443 C29.472064,3.44502969 30,4.71953961 30,6.0751254 C30,7.43071119 29.472064,8.70522111 28.5134544,9.66376637 C26.26857,11.9087342 24.4545695,13 22.9678838,13 C21.681539,13 20.6621053,12.157848 19.7520568,11.2478642 C19.1245459,10.6204196 18.6221168,10.0276618 18.3187673,9.39419085 C18.3092373,9.36924442 18.2983057,9.34478852 18.2848516,9.32124358 C18.0892055,8.88860535 17.9866175,8.43585581 18.001403,7.93895951 Z M17.9166139,10 C18.3132884,10.6069728 18.8116468,11.1551989 19.3282837,11.671863 C19.8443062,12.187836 20.3922777,12.6867609 21,13.0838581 L20.0225601,14 L17,10.97773 L17.9166139,10 Z M2.96657578,29.6871448 C2.51079153,30.1144402 1.78079233,30.1024619 1.33908428,29.6608872 C0.897443895,29.2192448 0.885668623,28.4891746 1.31282677,28.0335237 L7.90596409,21 L10,23.0940454 L2.96657578,29.6871448 Z M15.3033587,26 L13.4456851,24.1423191 L15.0685543,22.5194435 C15.275394,22.312603 15.275394,21.9772374 15.0685543,21.7704675 C14.8616439,21.5636269 14.5263503,21.5636269 14.3195105,21.7704675 L12.6966413,23.3933431 L5,15.6966715 L12.6966413,8 L20.3932121,15.6966715 L15.8175274,20.2723742 C15.6106876,20.4792147 15.6106876,20.8145803 15.8175274,21.0213502 C15.9209825,21.1247352 16.0565688,21.1764983 16.1920845,21.1764983 C16.3276002,21.1764983 16.4631865,21.1248058 16.5666417,21.0213502 L21.1423264,16.4456476 L23,18.3033285 L15.3033587,26 Z" id="Shape"></path>
                </g>
            </g>
        </g>
    </g>
</svg>