<?xml version="1.0" encoding="UTF-8"?>
<svg width="52px" height="52px" viewBox="0 0 52 52" version="1.1" xmlns="http://www.w3.org/2000/svg" xmlns:xlink="http://www.w3.org/1999/xlink">
    <!-- Generator: Sketch 46.2 (44496) - http://www.bohemiancoding.com/sketch -->
    <title>mypage_oval</title>
    <desc>Created with Sketch.</desc>
    <defs>
        <linearGradient x1="0%" y1="0%" x2="100%" y2="100%" id="linearGradient-1">
            <stop stop-color="#D0D0D0" offset="0%"></stop>
            <stop stop-color="#FEFEFE" offset="100%"></stop>
        </linearGradient>
    </defs>
    <g id="Symbols" stroke="none" stroke-width="1" fill="none" fill-rule="evenodd">
        <g id="mypage_oval">
            <g id="Group-5">
                <g id="event-copy" fill="url(#linearGradient-1)">
                    <circle id="Oval-3" cx="26" cy="26" r="26"></circle>
                </g>
                <g id="007-people-copy" transform="translate(9.000000, 11.000000)" fill-rule="nonzero" fill="#000000">
                    <path d="M17.0007886,41 C10.8988631,41 4.96095932,38.9920757 0.281607287,35.3450294 C0.073425801,35.1840443 -0.0290878093,34.9337855 0.0071862374,34.6835267 C0.0434602841,34.4332679 0.218521988,34.2195966 0.464554653,34.1171515 C1.11591036,33.8464037 1.8319285,33.5741924 2.63468893,33.3034446 C6.78412445,31.90141 8.83124239,30.6691415 9.71128231,28.9670891 C1.95494483,27.1742995 1.040208,22.7340353 1.00393396,22.5379261 C0.951888585,22.2496163 1.08752198,21.9598429 1.3509031,21.8003213 C1.50703921,21.7051936 5.22118617,19.3431019 5.22118617,13.2959129 C5.22118617,6.72039979 6.6216798,0 17.0007886,0 C27.3798973,0 28.780391,6.72186329 28.780391,13.2959129 C28.780391,19.3431019 32.4945379,21.7051936 32.6538283,21.8032483 C32.912478,21.9627699 33.0496885,22.2540068 32.9976432,22.5379261 C32.9613691,22.7325718 32.0450552,27.1742995 24.2902948,28.9670891 C25.1719119,30.6691415 27.2174527,31.8999465 31.3653111,33.3034446 C32.1680715,33.5741924 32.8856668,33.8464037 33.5354453,34.118615 C33.7830551,34.2225236 33.9565397,34.4361949 33.9928138,34.6849902 C34.0290878,34.9337855 33.9265742,35.1840443 33.7183927,35.346493 C29.0421949,38.9920757 23.1042912,41 17.0007886,41 Z M2.31926243,34.9806175 C6.54124605,37.9266464 11.7063549,39.5364983 17.0007886,39.5364983 C22.2967994,39.5364983 27.4619082,37.9266464 31.6823147,34.9806175 C31.4094708,34.8796359 31.1240098,34.7801178 30.8275089,34.6791362 C25.5598865,32.8980546 23.2967014,31.2633232 22.4750154,28.6451187 C22.4135072,28.4490095 22.4434727,28.2382652 22.5570262,28.0641085 C22.6705798,27.8884883 22.8582585,27.7655542 23.0727486,27.7245761 C29.2014853,26.5508478 30.8874399,23.745315 31.3132657,22.6901303 C30.1335706,21.7681242 27.2048356,18.9113689 27.2048356,13.2973764 C27.2048356,6.19500268 25.4699899,1.4649652 17.0023657,1.4649652 C8.53474148,1.4649652 6.79989577,6.19500268 6.79989577,13.2973764 C6.79989577,18.9113689 3.86958365,21.7681242 2.6914657,22.6901303 C3.1141372,23.739461 4.79693754,26.5493843 10.9304057,27.7231126 C11.1464728,27.7640907 11.3341516,27.8870248 11.4477052,28.0611815 C11.5596816,28.2368017 11.5912242,28.447546 11.529716,28.6421917 C10.7096072,31.2603962 8.44642207,32.8965911 3.1772225,34.6776727 L3.1772225,34.6776727 C2.87756733,34.7801178 2.59368348,34.8796359 2.31926243,34.9806175 Z" id="Shape"></path>
                </g>
            </g>
        </g>
    </g>
</svg>