<?xml version="1.0" encoding="UTF-8"?>
<svg width="52px" height="52px" viewBox="0 0 52 52" version="1.1" xmlns="http://www.w3.org/2000/svg" xmlns:xlink="http://www.w3.org/1999/xlink">
    <!-- Generator: Sketch 46.2 (44496) - http://www.bohemiancoding.com/sketch -->
    <title>savedarticles_oval</title>
    <desc>Created with Sketch.</desc>
    <defs>
        <linearGradient x1="0%" y1="0%" x2="100%" y2="100%" id="linearGradient-1">
            <stop stop-color="#D0D0D0" offset="0%"></stop>
            <stop stop-color="#FEFEFE" offset="100%"></stop>
        </linearGradient>
    </defs>
    <g id="Symbols" stroke="none" stroke-width="1" fill="none" fill-rule="evenodd">
        <g id="savedarticles_oval">
            <g id="saved">
                <circle id="Oval-3-Copy-3" fill="url(#linearGradient-1)" cx="26" cy="26" r="26"></circle>
                <g id="Group" transform="translate(16.000000, 13.000000)" fill-rule="nonzero" fill="#000000">
                    <g id="bookmark">
                        <path d="M17.3865958,0 L3.47729308,0 C1.56061889,0 0,1.30784901 0,2.91664274 L0,27.4165949 C0,27.6522429 0.169714696,27.8657424 0.429796111,27.9544454 C0.689877526,28.0465937 0.988948333,27.9952969 1.18787247,27.8284456 L10.4319444,20.0748124 L19.6760164,27.8296488 C19.8095453,27.9405001 19.9876056,28 20.1684042,28 C20.2574017,28 20.3478336,27.986 20.4340928,27.9556485 C20.6941742,27.8657971 20.8638889,27.6522976 20.8638889,27.4166496 C20.8638889,23.6792999 20.8638889,20.8762876 20.8638889,19.0076127 C20.8638889,18.6958876 19.4743805,19.0076127 19.4743805,19.0076127 C19.7652357,19.0076127 19.4743805,18.5160171 19.4743805,17.6439611 C19.4743805,15.0351516 19.4743805,9.44519292 19.4743805,6.89730535 C19.4743805,6.13309981 19.4737491,5.55986888 19.4743805,5.5629425 C19.5398243,5.88150864 20.8638889,5.95285771 20.8638889,5.54646674 C20.8638889,4.98711546 20.8638889,4.11052569 20.8638889,2.91669743 C20.8638889,1.30899744 19.30327,0 17.3865958,0 Z M19.4729847,26.0073008 L10.9243322,18.8369632 C10.7879997,18.723815 10.6100047,18.666612 10.4319444,18.666612 C10.2538842,18.666612 10.0758891,18.7237603 9.93955667,18.8381116 L1.39090419,26.0084492 L1.39090419,2.91664274 C1.39090419,1.95179306 2.32697561,1.16664616 3.47729308,1.16664616 L17.3865306,1.16664616 C18.5368481,1.16664616 19.4729195,1.95179306 19.4729195,2.91664274 L19.4729195,26.0073008 L19.4729847,26.0073008 Z" id="Shape"></path>
                    </g>
                    <g id="005-plus" transform="translate(14.000000, 6.000000)" stroke="#000000">
                        <path d="M6.30941358,0 C2.8305,0 0,2.82623136 0,6.3004386 C0,9.77464583 2.8305,12.6008772 6.30941358,12.6008772 C9.78832716,12.6008772 12.6188272,9.77464583 12.6188272,6.3004386 C12.6188272,2.82623136 9.78832716,0 6.30941358,0 Z M6.30941358,12.1162281 C3.09816474,12.1162281 0.485339506,9.50711952 0.485339506,6.3004386 C0.485339506,3.09375768 3.09816474,0.484649123 6.30941358,0.484649123 C9.52066242,0.484649123 12.1334877,3.09375768 12.1334877,6.3004386 C12.1334877,9.50711952 9.52066242,12.1162281 6.30941358,12.1162281 Z" id="Shape"></path>
                        <path d="M9.40226337,5.92982456 L6.55684156,5.92982456 L6.55684156,3.2119883 C6.55684156,3.07535526 6.44599383,2.96491228 6.30941358,2.96491228 C6.17283333,2.96491228 6.0619856,3.07535526 6.0619856,3.2119883 L6.0619856,5.92982456 L3.21656379,5.92982456 C3.07998354,5.92982456 2.9691358,6.04026754 2.9691358,6.17690058 C2.9691358,6.31353363 3.07998354,6.42397661 3.21656379,6.42397661 L6.0619856,6.42397661 L6.0619856,9.38888889 C6.0619856,9.52552193 6.17283333,9.63596491 6.30941358,9.63596491 C6.44599383,9.63596491 6.55684156,9.52552193 6.55684156,9.38888889 L6.55684156,6.42397661 L9.40226337,6.42397661 C9.53884362,6.42397661 9.64969136,6.31353363 9.64969136,6.17690058 C9.64969136,6.04026754 9.53884362,5.92982456 9.40226337,5.92982456 Z" id="Shape"></path>
                    </g>
                </g>
            </g>
        </g>
    </g>
</svg>