<?xml version="1.0" encoding="UTF-8"?>
<svg width="15px" height="18px" viewBox="0 0 15 18" version="1.1" xmlns="http://www.w3.org/2000/svg" xmlns:xlink="http://www.w3.org/1999/xlink">
    <!-- Generator: Sketch 46.2 (44496) - http://www.bohemiancoding.com/sketch -->
    <title>timewatch</title>
    <desc>Created with Sketch.</desc>
    <defs></defs>
    <g id="Symbols" stroke="none" stroke-width="1" fill="none" fill-rule="evenodd">
        <g id="timewatch" fill-rule="nonzero" fill="#485563">
            <g id="stopwatch">
                <path d="M8.03910972,11.5092293 C8.0566925,11.4440401 8.08105321,11.3810672 8.08105321,11.310643 C8.08105321,11.0128972 7.90526535,10.7631071 7.65575744,10.6208067 L7.65575744,6.01197544 C7.65575744,5.78667909 7.46553656,5.60437093 7.23046167,5.60437093 C6.99538678,5.60437093 6.8051659,5.78667909 6.8051659,6.01197544 L6.8051659,10.6208067 C6.55565798,10.7631071 6.37987013,11.0129354 6.37987013,11.310643 C6.37987013,11.7600129 6.76154786,12.1258138 7.2304218,12.1258138 C7.30386277,12.1258138 7.36964865,12.1024282 7.43770714,12.0855768 L9.90710985,14.4519528 C9.99015955,14.5315478 10.0990053,14.5713644 10.2078111,14.5713644 C10.316617,14.5713644 10.4254229,14.5315478 10.5085124,14.4519528 C10.6746517,14.2927245 10.6746517,14.0347953 10.5085124,13.8756053 L8.03910972,11.5092293 Z" id="Shape"></path>
                <path d="M14.7773239,5.12127416 C14.9227102,4.97531532 14.9227102,4.73888092 14.7773239,4.59295711 L13.2886753,3.09844652 C13.143289,2.95248769 12.907782,2.95248769 12.7624305,3.09844652 L11.5998283,4.26562682 C10.8056289,3.7269417 9.90274732,3.33820852 8.9317955,3.13960362 L8.9317955,2.24174837 L9.30396637,2.24174837 C9.50967739,2.24174837 9.67613724,2.07463304 9.67613724,1.86811197 L9.67613724,0.373636404 C9.67613724,0.167115336 9.50967739,0 9.30396637,0 L5.58239727,0 C5.37668625,0 5.2102264,0.167115336 5.2102264,0.373636404 L5.2102264,1.86814699 C5.2102264,2.07463304 5.37668625,2.24174837 5.58239727,2.24174837 L5.95456813,2.24174837 L5.95456813,3.13960362 C4.98361632,3.33824354 4.08073475,3.7269417 3.28653531,4.26562682 L2.12393311,3.09844652 C1.97854678,2.95248769 1.74303977,2.95248769 1.59768832,3.09844652 L0.109039749,4.59295711 C-0.0363465829,4.73891595 -0.0363465829,4.97535035 0.109039749,5.12127416 L1.27164194,6.28845446 C0.4691387,7.48088945 8.7224821e-06,8.91718464 8.7224821e-06,10.4615041 C8.7224821e-06,14.5819427 3.33890509,17.933987 7.44318182,17.933987 C11.5474585,17.933987 14.8863549,14.5819427 14.8863549,10.4615041 C14.8863549,8.91718464 14.4172598,7.48088945 13.6147217,6.28845446 L14.7773239,5.12127416 Z M13.0255704,3.8909396 L13.9879393,4.85709812 L13.1621295,5.68615972 C12.8711824,5.33557129 12.5489739,5.01205898 12.1997606,4.7200012 L13.0255704,3.8909396 Z M5.95453324,0.747237782 L8.9317955,0.747237782 L8.9317955,1.49447556 L8.55965953,1.49447556 C8.35394851,1.49447556 8.18748866,1.6615909 8.18748866,1.86811197 L8.18748866,3.02685068 C7.94256136,3.00229653 7.6943893,2.98898615 7.44318182,2.98898615 C7.19197433,2.98898615 6.94376738,3.00229653 6.69887498,3.02685068 L6.69887498,1.86811197 C6.69887498,1.6615909 6.53241513,1.49447556 6.32670411,1.49447556 L5.95453324,1.49447556 L5.95453324,0.747237782 Z M0.898424379,4.85713315 L1.86079327,3.8909396 L2.68660299,4.7200012 C2.3373897,5.012094 2.01514632,5.33557129 1.72423409,5.68615972 L0.898424379,4.85713315 Z M14.1420481,10.4615041 C14.1420481,14.1696711 11.1368041,17.1867492 7.44318182,17.1867492 C3.74955955,17.1867492 0.744315565,14.1696711 0.744315565,10.4615041 C0.744315565,6.75333703 3.74955955,3.73625896 7.44318182,3.73625896 C11.1368041,3.73625896 14.1420481,6.75333703 14.1420481,10.4615041 Z" id="Shape"></path>
            </g>
        </g>
    </g>
</svg>